<svg id="Layer_1" data-name="Layer 1" xmlns="http://www.w3.org/2000/svg" viewBox="0 0 135.63 33"><defs><style>.cls-1{fill:#011c1a;}.cls-2{fill:#02b3e4;}</style></defs><path class="cls-1" d="M43.39,29V5.2h16V9.59H48.49v5.33h8.84v4.19H48.49v5.5H59.75V29ZM73.51,13.7V5.2H78.3V29H74.12l-.48-2.41a6.46,6.46,0,0,1-5.37,2.61c-4.69,0-8.12-3.43-8.12-9s3.43-8.91,8.09-8.91A6.39,6.39,0,0,1,73.51,13.7ZM69.33,25.29c2.61,0,4.25-2,4.25-5s-1.64-5.07-4.25-5.07-4.29,2-4.29,5S66.71,25.29,69.33,25.29Zm23-5V11.52h4.79V29H92.83l-.44-2.11a6.17,6.17,0,0,1-5.14,2.31c-3.6,0-6.93-1.8-6.93-8V11.52h4.79v9.05c0,3.13,1,4.66,3.4,4.66S92.29,23.49,92.29,20.26Zm17.13-8.94c3.78,0,7,2,7,8V29h-4.8V19.79c0-3-1.12-4.53-3.53-4.53s-3.91,1.77-3.91,4.8V29h-4.8V11.52h4.18L104,13.7A6.48,6.48,0,0,1,109.42,11.32ZM135.09,25h.54V29h-2.45c-2.48,0-3.26-1.19-3.23-2.86a6.23,6.23,0,0,1-5.71,3.06c-3.77,0-6.49-1.8-6.49-5.13,0-3.71,2.79-5.81,8-5.81h3.47v-.85c0-1.57-1.12-2.59-3.13-2.59s-3.13.85-3.33,2.14h-4.63c.35-3.4,3.47-5.64,8.1-5.64,4.89,0,7.71,2.18,7.71,6.36v6.19C134,24.78,134.34,25,135.09,25Zm-5.85-3.16v-.34h-3.5c-2,0-3.17.82-3.17,2.28,0,1.22,1,2,2.59,2A3.77,3.77,0,0,0,129.24,21.79Z"/><path class="cls-2" d="M27.58,16.5,26.73,10H22.37L15.75,16.5Z"/><path class="cls-2" d="M19.74,10H17.43L10.81,16.5h2.32Z"/><path class="cls-2" d="M16.13,26.44A10,10,0,1,1,26.74,16.5h6.61A16.59,16.59,0,0,0,16.68,0,16.59,16.59,0,0,0,0,16.5,16.59,16.59,0,0,0,16.68,33h6.08Z"/><path class="cls-2" d="M23.83,26.45,30.44,33h2.2L26,26.45Z"/><path class="cls-2" d="M25.39,33h2.42L21.2,26.45H18.77Z"/></svg>